<?xml version="1.0" encoding="UTF-8" standalone="no"?>
<!-- Created with Inkscape (http://www.inkscape.org/) -->

<svg
   width="10mm"
   height="10mm"
   viewBox="0 0 10 10"
   version="1.1"
   id="svg5"
   xmlns="http://www.w3.org/2000/svg"
   xmlns:svg="http://www.w3.org/2000/svg">
  <defs
     id="defs2" />
  <g
     id="layer1">
    <path
       style="fill:#742a00;stroke:none;stroke-width:0.01;stroke-linecap:butt;stroke-linejoin:miter;stroke-miterlimit:4;stroke-dasharray:none;stroke-opacity:1;fill-opacity:1"
       d="M 5.6614403,3.1424292 C 4.1956699,3.1586569 2.9403028,3.8354226 2.1520728,4.6753287 1.9070266,3.626628 0.99451481,3.1960997 0.01116877,3.09375 0.27183374,3.3155056 0.97823519,4.2696988 0.98527308,5.0007144 0.98694498,5.1743719 1.050578,5.2956899 1.1572982,5.3659846 1.0504427,5.4336825 0.98680749,5.5501767 0.98513549,5.7169293 0.97809736,6.4188784 0.27167168,7.3351311 0.01099777,7.5480693 0.99437754,7.4497892 1.9069206,7.0363795 2.1519752,6.029377 2.9402323,6.835887 4.1956424,7.4857432 5.6614631,7.5013257 7.5384469,7.5709958 9.3211842,6.3041599 9.9881066,5.3659846 9.3210359,4.3891676 7.5383597,3.0698742 5.6614403,3.1424292 Z"
       id="path1017" />
  </g>
</svg>
