<?xml version="1.0" encoding="UTF-8" standalone="no"?>
<!-- Created with Inkscape (http://www.inkscape.org/) -->

<svg
   width="10mm"
   height="10mm"
   viewBox="0 0 37.795277 37.795276"
   version="1.1"
   id="svg5"
   xmlns="http://www.w3.org/2000/svg"
   xmlns:svg="http://www.w3.org/2000/svg">
  <defs
     id="defs2" />
  <g
     id="layer1">
    <path
       id="path46180"
       style="opacity:1;fill:#162a3d;fill-opacity:1;stroke:none;stroke-width:17.5977;stroke-miterlimit:4;stroke-dasharray:none;stroke-opacity:1"
       d="M 18.898438 0.53125 A 8.8210812 8.8210812 0 0 0 10.076172 9.3535156 A 8.8210812 8.8210812 0 0 0 18.898438 18.173828 A 8.8210812 8.8210812 0 0 0 27.71875 9.3535156 A 8.8210812 8.8210812 0 0 0 18.898438 0.53125 z M 9.1640625 19.085938 A 8.8210812 8.8210812 0 0 0 0.34375 27.908203 A 8.8210812 8.8210812 0 0 0 9.1640625 36.728516 A 8.8210812 8.8210812 0 0 0 17.984375 27.908203 A 8.8210812 8.8210812 0 0 0 9.1640625 19.085938 z M 28.630859 19.085938 A 8.8210812 8.8210812 0 0 0 19.810547 27.908203 A 8.8210812 8.8210812 0 0 0 28.630859 36.728516 A 8.8210812 8.8210812 0 0 0 37.453125 27.908203 A 8.8210812 8.8210812 0 0 0 28.630859 19.085938 z " />
  </g>
</svg>
