<?xml version="1.0" encoding="UTF-8" standalone="no"?>
<!-- Created with Inkscape (http://www.inkscape.org/) -->

<svg
   width="10mm"
   height="10mm"
   viewBox="0 0 10 10"
   version="1.1"
   id="svg5"
   xmlns="http://www.w3.org/2000/svg"
   xmlns:svg="http://www.w3.org/2000/svg">
  <defs
     id="defs2" />
  <g
     id="layer1">
    <path
       id="path2756"
       style="fill:#ff0000;stroke:none;stroke-width:16.5355;stroke-miterlimit:4;stroke-dasharray:none;stroke-opacity:1"
       d="M 18.898438 0 A 18.897638 18.897638 0 0 0 0 18.898438 A 18.897638 18.897638 0 0 0 18.898438 37.794922 A 18.897638 18.897638 0 0 0 37.794922 18.898438 A 18.897638 18.897638 0 0 0 18.898438 0 z M 18.898438 8.5976562 A 10.299894 -10.299894 0 0 1 29.197266 18.898438 A 10.299894 -10.299894 0 0 1 18.898438 29.197266 A 10.299894 -10.299894 0 0 1 8.5976562 18.898438 A 10.299894 -10.299894 0 0 1 18.898438 8.5976562 z "
       transform="scale(0.26458333)" />
  </g>
</svg>
