<?xml version="1.0" encoding="UTF-8" standalone="no"?>
<!-- Created with Inkscape (http://www.inkscape.org/) -->

<svg
   width="10mm"
   height="10mm"
   viewBox="0 0 37.795277 37.795276"
   version="1.1"
   id="svg5"
   xmlns="http://www.w3.org/2000/svg"
   xmlns:svg="http://www.w3.org/2000/svg">
  <defs
     id="defs2" />
  <g
     id="layer1">
    <path
       style="fill:none;fill-rule:evenodd;stroke:#ff7600;stroke-width:2.13543;stroke-miterlimit:4;stroke-dasharray:none;stroke-opacity:1"
       id="path50461"
       d="m 20.708875,16.375495 c 1.257463,-0.712072 2.576277,0.591425 2.817383,1.761696 0.453571,2.201525 -1.526134,4.039118 -3.591479,4.228362 -3.09422,0.283518 -5.534726,-2.469316 -5.63934,-5.421261 -0.141025,-3.979351 3.414533,-7.0424862 7.251043,-7.0503196 4.862676,-0.00993 8.556144,4.3604516 8.461298,9.0808256 -0.115442,5.74545 -5.306709,10.07312 -10.910608,9.872277 C 12.469133,28.609527 7.5050224,22.593908 7.8139167,16.106684 8.1715383,8.5961182 15.013675,2.994146 22.38409,3.4124502 30.777167,3.8887951 37.017962,11.558893 36.489302,19.812406 35.895176,29.087998 27.396105,35.968297 18.259565,35.328597 8.1014472,34.617371 0.5811438,25.288592 1.3323945,15.269077 c 0.1158437,-1.54502 0.4181739,-3.07538 0.8962978,-4.549054" />
  </g>
</svg>
